<svg xmlns="http://www.w3.org/2000/svg" viewBox="0 0 1463.76 449.11"><defs><style>.cls-1{fill:#808285;}.cls-2{fill:#fdbf22;}.cls-3{fill:#333;}.cls-4{fill:#d4a01d;}.cls-5{fill:#545454;}.cls-6{fill:#bbe6eb;}.cls-7{fill:#cbcbcb;}.cls-8{fill:#bbb;}.cls-9{fill:#ce9006;}.cls-10{fill:#bd8405;}.cls-11{fill:#e1aa1e;}.cls-12{fill:#283039;}.cls-13{fill:#dca61f;}.cls-14{fill:#2c6471;}.cls-15{fill:#f1942e;}.cls-16{fill:#aa6b21;}.cls-17{fill:#367480;}.cls-18{fill:#696965;}.cls-19{fill:#3e3e3c;}.cls-20{fill:#8f8f8a;}.cls-21{fill:#e9b020;}.cls-22{fill:#d1d3d4;}.cls-23{fill:#f15a29;}.cls-24{fill:#334a5f;}.cls-25{fill:#fff;}.cls-26{fill:#2c3b4e;}.cls-27{fill:#e6e7e8;}.cls-28{fill:#6d6e71;}</style></defs><title>construccion</title><g id="Layer_2" data-name="Layer 2"><g id="Capa_1" data-name="Capa 1"><rect class="cls-1" x="960.05" y="260.17" width="3" height="138.51"/><rect class="cls-1" x="1048.74" y="260.17" width="2.99" height="138.51"/><rect class="cls-1" x="1004.4" y="260.17" width="2.99" height="138.51"/><rect class="cls-1" x="915.71" y="260.17" width="2.99" height="138.51"/><rect class="cls-1" x="871.37" y="260.17" width="2.99" height="138.51"/><rect class="cls-1" x="836.51" y="270.34" width="250.08" height="2.99"/><rect class="cls-1" x="836.51" y="308.73" width="250.08" height="2.99"/><rect class="cls-1" x="836.51" y="347.12" width="250.08" height="2.99"/><rect class="cls-1" x="836.51" y="385.52" width="250.08" height="2.98"/><rect class="cls-1" x="227.58" y="276.61" width="138.51" height="3"/><rect class="cls-1" x="227.58" y="187.92" width="138.51" height="2.99"/><rect class="cls-1" x="227.58" y="232.27" width="138.51" height="2.99"/><rect class="cls-1" x="227.58" y="320.95" width="138.51" height="2.99"/><rect class="cls-1" x="227.58" y="365.29" width="138.51" height="2.99"/><rect class="cls-1" x="237.75" y="153.07" width="2.99" height="250.08"/><rect class="cls-1" x="276.14" y="153.07" width="2.99" height="250.08"/><rect class="cls-1" x="314.53" y="153.07" width="2.99" height="250.08"/><rect class="cls-1" x="352.93" y="153.07" width="2.99" height="250.08"/><path d="M0,376.66l28.29-33.72a90.82,90.82,0,0,0,55.45,18.55c9.5,0,13.58-2.49,13.58-6.79v-.45c0-4.52-5-7-22-10.41C39.83,336.6,8.6,326.41,8.6,292.92v-.45c0-30.1,23.54-53.41,67.22-53.41,30.55,0,53.18,7.24,71.51,21.72l-25.8,35.76A83.08,83.08,0,0,0,74,280.92c-7.93,0-11.55,2.72-11.55,6.57v.45c0,4.3,4.3,7,21.05,10.18,40.51,7.47,67.67,19.24,67.67,51.15v.46c0,33.26-27.38,53.63-69.93,53.63C49.11,403.36,20.14,394.31,0,376.66Z"/><path d="M176.08,242H229V400.42H176.08Z"/><path d="M300.32,286.81H253.7V242H399.9v44.81H353.28V400.42h-53Z"/><path d="M424.58,242h52.95V400.42H424.58Z"/><path d="M504.69,321.66v-.45c0-45.94,37.8-82.61,86.68-82.61s86.23,36.21,86.23,82.16v.45c0,45.94-37.8,82.6-86.68,82.6S504.69,367.6,504.69,321.66Zm119.5,0v-.45c0-18.79-12.9-35.76-33.27-35.76-20.14,0-32.82,16.75-32.82,35.31v.45C558.1,340,571,357,591.37,357,611.51,357,624.19,340.22,624.19,321.66Z"/><path d="M724.45,242.56H779.9l22.4,76,25.57-76.5h45.72l25.58,76.5,22.4-76h54.54L924.29,402.11H878.12l-27.84-78.76-27.84,78.76H776.27Z"/><path d="M997.39,242.56H1132.5V286h-83.06v16.07h77.41v38.25h-77.41v17.2h84.2V401H997.39Z"/><path d="M1160.12,242.56h88.71c22,0,35.76,5,45,14.25,5.66,5.66,9.73,13.81,9.73,24.67v.46c0,18.78-11.31,30.32-28.29,36.21,20.37,5.88,33.5,16.74,33.5,38.47v.45c0,25.35-20.82,43.91-60.88,43.91h-87.81Zm91.43,50.92c0-7-5.66-10.86-17-10.86h-22.86v22.17h23.08c11.32,0,16.75-3.84,16.75-10.86Zm-13.13,43.9h-26.7v23.54h26.48c11.54,0,17.42-4.75,17.42-11.54v-.45C1255.62,342.14,1250,337.38,1238.42,337.38Z"/><path class="cls-2" d="M312.6,390.08l-6.19,13.3H241.29l-5.22-13.3v-7.35a5.44,5.44,0,0,1,4.7-5.39l32.45-4.51h33.7l4.13,3.88a4.9,4.9,0,0,1,1.55,3.58Z"/><path class="cls-3" d="M306.92,372.83l-4.3-21.15H277.17l-3.95,21.15,3.29,11.58a3.23,3.23,0,0,0,3.11,2.35h22a3.23,3.23,0,0,0,3.18-2.65Z"/><polygon class="cls-4" points="312.56 390.51 236.24 390.51 241.45 403.38 306.57 403.38 312.56 390.51"/><path class="cls-3" d="M249,414.44h56a8.77,8.77,0,0,0,8.77-8.76h0a8.77,8.77,0,0,0-8.77-8.77H249a8.77,8.77,0,0,0-8.77,8.77h0A8.77,8.77,0,0,0,249,414.44Z"/><path class="cls-5" d="M250.52,411.56h53a5.89,5.89,0,0,0,5.89-5.88h0a5.89,5.89,0,0,0-5.89-5.89h-53a5.89,5.89,0,0,0-5.89,5.89h0A5.89,5.89,0,0,0,250.52,411.56Z"/><path class="cls-2" d="M247.14,405.68a5,5,0,1,0,5-5.05A5,5,0,0,0,247.14,405.68Z"/><path class="cls-2" d="M272,405.68a5,5,0,1,0,5-5.05A5,5,0,0,0,272,405.68Z"/><path class="cls-2" d="M296.83,405.68a5,5,0,1,0,5.05-5.05A5,5,0,0,0,296.83,405.68Z"/><path class="cls-2" d="M276,351.68h28.3a1.76,1.76,0,0,0,1.76-1.76h0a1.76,1.76,0,0,0-1.76-1.76H276a1.76,1.76,0,0,0-1.76,1.76h0A1.76,1.76,0,0,0,276,351.68Z"/><path class="cls-6" d="M280.87,354.94l-3.44,17.5a1.67,1.67,0,0,0,0,.77l1.44,5.26a1.68,1.68,0,0,0,1.62,1.24H290V353.57h-7.46A1.7,1.7,0,0,0,280.87,354.94Z"/><path class="cls-6" d="M292.23,353.57h5.33a2.32,2.32,0,0,1,2.33,2.32v21.5a2.32,2.32,0,0,1-2.33,2.32h-5.33Z"/><path class="cls-3" d="M239.25,389.77l1.52,2a.76.76,0,0,0,1.06.14l14.75-11.2a2,2,0,0,0,.38-2.82h0a2,2,0,0,0-2.81-.38L239.4,388.72A.74.74,0,0,0,239.25,389.77Z"/><rect class="cls-7" x="226.43" y="384.34" width="1.26" height="32.53" transform="translate(44.68 823.43) rotate(-127.12)"/><path class="cls-4" d="M214.85,408.34h59.9a2.28,2.28,0,0,0,2.28-2.28h0a2.28,2.28,0,0,0-2.28-2.28h-59.9Z"/><path class="cls-7" d="M221.85,393.15V411.7a3.78,3.78,0,0,1-3.78,3.78H202.25a1.23,1.23,0,0,1-.88-2.09l6.43-6.54A4,4,0,0,0,209,404v-3.28a10.24,10.24,0,0,1,10.25-10.24h0A2.65,2.65,0,0,1,221.85,393.15Z"/><path class="cls-8" d="M218.47,411.7V393.15a2.62,2.62,0,0,0-1.53-2.39,10.58,10.58,0,0,1,2.26-.25h0a2.65,2.65,0,0,1,2.65,2.64V411.7a3.78,3.78,0,0,1-3.78,3.78h-3.38A3.78,3.78,0,0,0,218.47,411.7Z"/><path class="cls-3" d="M87.26,388.15l.63-.46a.6.6,0,0,0,.14-.82l-3.61-5a.59.59,0,0,0-.82-.13l-.64.45a.59.59,0,0,0-.13.82l3.61,5A.59.59,0,0,0,87.26,388.15Z"/><rect class="cls-7" x="81.86" y="378.53" width="0.66" height="3.76" transform="translate(371.37 640.87) rotate(144.2)"/><path class="cls-3" d="M46.63,377.32a2.35,2.35,0,0,1,2.29,1.84l2.56,12.59H39.68V376.81Z"/><path class="cls-2" d="M11.69,382.31l1.93-1.83,4.31-10.59a2.87,2.87,0,0,1,2.66-1.79H37.1a2.58,2.58,0,0,1,2.58,2.58v27.8H12a2.13,2.13,0,0,1-2.13-2.13v-9.86A5.73,5.73,0,0,1,11.69,382.31Z"/><path class="cls-6" d="M36.09,372v5.5a1.47,1.47,0,0,1-1.46,1.47h-16a1.47,1.47,0,0,1-1.37-2l2.14-5.5a1.46,1.46,0,0,1,1.36-.93h13.9A1.46,1.46,0,0,1,36.09,372Z"/><path class="cls-9" d="M39.49,394.8H114a0,0,0,0,1,0,0v3.68a0,0,0,0,1,0,0H39.81a.32.32,0,0,1-.32-.32V394.8A0,0,0,0,1,39.49,394.8Z" transform="translate(153.46 793.27) rotate(180)"/><path class="cls-3" d="M12.55,398.48H113.32a.65.65,0,0,1,.65.65v4.15a0,0,0,0,1,0,0H11.75a0,0,0,0,1,0,0v-4A.8.8,0,0,1,12.55,398.48Z" transform="translate(125.72 801.75) rotate(180)"/><path class="cls-10" d="M112.43,392.74v2.06H39.68v-3.4h70.16C111.27,391.4,112.43,391.31,112.43,392.74Z"/><path class="cls-9" d="M11.69,382.31l.91-.86H39.68v.95H11.59Z"/><path class="cls-11" d="M34,394.07a11.2,11.2,0,0,0-10.88,8.58,3.34,3.34,0,0,1-3.24,2.6h0a.24.24,0,0,1-.24-.24,14.36,14.36,0,0,1,28.72,0,.24.24,0,0,1-.24.24h0a3.36,3.36,0,0,1-3.25-2.6A11.18,11.18,0,0,0,34,394.07Z"/><path class="cls-9" d="M23.08,402.65a11.18,11.18,0,0,1,21.75,0,3.26,3.26,0,0,0,.22.62H22.87A3.23,3.23,0,0,0,23.08,402.65Z"/><path class="cls-12" d="M23.73,405.25A10.23,10.23,0,1,0,34,395,10.23,10.23,0,0,0,23.73,405.25Z"/><path class="cls-2" d="M30.44,405.25A3.52,3.52,0,1,0,34,401.72,3.52,3.52,0,0,0,30.44,405.25Z"/><path class="cls-7" d="M15.07,398.18v3.25a3.21,3.21,0,0,1-3.21,3.21H9.57a3.15,3.15,0,0,1-3.16-3.16v-2.29A3.16,3.16,0,0,1,9.57,396h3.35A2.15,2.15,0,0,1,15.07,398.18Z"/><path class="cls-11" d="M77.22,390.89h24.29A14.36,14.36,0,0,1,115.87,405a.24.24,0,0,1-.24.24,3.36,3.36,0,0,1-3.25-2.6,11.18,11.18,0,0,0-10.87-8.58v0H77.22v0a11.2,11.2,0,0,0-10.88,8.58,3.34,3.34,0,0,1-3.25,2.6.24.24,0,0,1-.23-.24A14.36,14.36,0,0,1,77.22,390.89Z"/><path class="cls-10" d="M66.34,402.65a11.2,11.2,0,0,1,10.88-8.58v0h24.29v0a11.18,11.18,0,0,1,10.87,8.58,4.13,4.13,0,0,0,.22.62H66.13A3.23,3.23,0,0,0,66.34,402.65Z"/><path class="cls-12" d="M67.67,405.25A10.23,10.23,0,1,0,77.9,395,10.23,10.23,0,0,0,67.67,405.25Z"/><path class="cls-2" d="M74.38,405.25a3.53,3.53,0,1,0,3.52-3.53A3.52,3.52,0,0,0,74.38,405.25Z"/><path class="cls-12" d="M90.89,405.25A10.23,10.23,0,1,0,101.12,395,10.23,10.23,0,0,0,90.89,405.25Z"/><path class="cls-2" d="M97.59,405.25a3.53,3.53,0,1,0,3.53-3.53A3.53,3.53,0,0,0,97.59,405.25Z"/><path class="cls-10" d="M86.42,386.72h15.86a0,0,0,0,1,0,0v3.62a.55.55,0,0,1-.55.55H87a.55.55,0,0,1-.55-.55v-3.62A0,0,0,0,1,86.42,386.72Z" transform="translate(188.69 777.6) rotate(180)"/><path class="cls-2" d="M105.79,389.35,51.86,367.08a3.69,3.69,0,0,1-2.26-3.79l2.55-25.9a4,4,0,0,0-2.45-4.08l-10.82-4.47a2.25,2.25,0,0,1-1.4-2.08h0A2.26,2.26,0,0,1,40,324.52l14.69,1.66a4,4,0,0,1,1.66.56l71.74,43.41a2.94,2.94,0,0,1,.94,4.14l-6.62,10.1-10.78,4.87A7.3,7.3,0,0,1,105.79,389.35Z"/><path class="cls-13" d="M55.4,364.41l8-19.5a.86.86,0,0,0-.46-1.13l-.14-.06a.87.87,0,0,0-1.13.48l-8.05,19.49a.88.88,0,0,0,.47,1.14l.14.05A.87.87,0,0,0,55.4,364.41Z"/><path class="cls-13" d="M64.71,368.26l8.05-19.51a.87.87,0,0,0-.47-1.13l-.14-.05A.86.86,0,0,0,71,348l-8,19.5a.86.86,0,0,0,.47,1.13l.14.05A.84.84,0,0,0,64.71,368.26Z"/><path class="cls-13" d="M74,372.1l8-19.5a.88.88,0,0,0-.47-1.14l-.14,0a.87.87,0,0,0-1.13.47l-8,19.5a.86.86,0,0,0,.47,1.13l.13.06A.87.87,0,0,0,74,372.1Z"/><path class="cls-13" d="M83.35,375.94l8-19.5a.86.86,0,0,0-.47-1.13l-.13-.06a.87.87,0,0,0-1.13.47l-8,19.5a.86.86,0,0,0,.48,1.13l.13.06A.87.87,0,0,0,83.35,375.94Z"/><path class="cls-13" d="M92.66,379.78l8-19.5a.87.87,0,0,0-.47-1.13l-.14,0a.84.84,0,0,0-1.12.47l-8,19.5a.87.87,0,0,0,.47,1.13l.14.05A.84.84,0,0,0,92.66,379.78Z"/><path class="cls-13" d="M102,383.62l8-19.5a.87.87,0,0,0-.47-1.13l-.14-.05a.87.87,0,0,0-1.13.47l-8.05,19.5a.88.88,0,0,0,.48,1.13l.13.06A.86.86,0,0,0,102,383.62Z"/><path class="cls-13" d="M111.3,387.47l8-19.5a.86.86,0,0,0-.47-1.13l-.13,0a.86.86,0,0,0-1.13.46l-8,19.5a.87.87,0,0,0,.47,1.13l.13.06A.88.88,0,0,0,111.3,387.47Z"/><path class="cls-9" d="M30.14,385.56h2.45a.64.64,0,0,0,.64-.64h0a.65.65,0,0,0-.64-.65H30.14a.65.65,0,0,0-.64.65h0A.64.64,0,0,0,30.14,385.56Z"/><path class="cls-14" d="M1427.21,52.66a1.17,1.17,0,0,0,1-.64,1.19,1.19,0,0,0-.52-1.59l-97-49.36A1.22,1.22,0,0,0,1330,1L1158.37,28.79a1.18,1.18,0,1,0,.38,2.32L1330,3.35l96.64,49.18A1.19,1.19,0,0,0,1427.21,52.66Z"/><rect class="cls-2" x="1331.99" y="49.87" width="83.03" height="11.21" transform="translate(2747.02 110.95) rotate(180)"/><path class="cls-15" d="M1400.77,46.45h59.45a3.54,3.54,0,0,1,3.54,3.54V66a1,1,0,0,1-1,1h-64.44a1,1,0,0,1-1-1V50A3.54,3.54,0,0,1,1400.77,46.45Z" transform="translate(2861 113.53) rotate(180)"/><path class="cls-2" d="M1331.59,9.39a1.24,1.24,0,0,0-2.44,0L1321.43,53h-2.78l9.93-51.47a1.82,1.82,0,0,1,3.58,0L1342.09,53h-2.79Z"/><path class="cls-2" d="M1318.15,56.77V89.36h27.69V56.77Zm2.58,3h22.53V86.33h-22.53Z"/><path class="cls-15" d="M1320.74,144.27c0-.1.1-.2.27-.26l19.34-6.71L1321,130.59c-.17-.06-.27-.16-.27-.26s.1-.2.27-.26l20.09-7a1.1,1.1,0,0,1,.88.08c.19.15.12.34-.16.44l-19.34,6.71,19.34,6.71.07,0,.09,0v0l0,.05a.2.2,0,0,1,0,.09,0,0,0,0,1,0,0v0a.37.37,0,0,1-.26.24l-19.34,6.71,19.34,6.71,0,0,.12.05v0l0,0a.16.16,0,0,1,0,.09,0,0,0,0,1,0,0v0a.28.28,0,0,1-.1.16h0l-.06,0-.1.06-19.34,6.71,19.34,6.71,0,0,.12.06v0s0,0,0,0a.44.44,0,0,1,0,.09s0,0,0,0h0a.23.23,0,0,1-.1.16h0l-.06,0-.1.06-19.34,6.71,19.34,6.71,0,0,.12.05s0,0,0,0l0,.06a.14.14,0,0,1,0,.08v0h0a.26.26,0,0,1-.1.16h0s0,0-.06,0l-.1.06-19.34,6.7,19.34,6.71,0,0a.67.67,0,0,1,.12.06h0l0,.05a.2.2,0,0,1,0,.09s0,0,0,0v0a.26.26,0,0,1-.1.16h0l-.06,0-.1.05L1322.48,200l19.34,6.71,0,0,.12.05v0a.1.1,0,0,1,0,0,.16.16,0,0,1,0,.09,0,0,0,0,1,0,0v0a.26.26,0,0,1-.1.16h0l-.06,0a.21.21,0,0,1-.1.06L1322.48,214l19.34,6.7c.17.07.27.17.27.27a.26.26,0,0,1-.11.18,1.1,1.1,0,0,1-.88.08l-20.09-7c-.17-.06-.27-.16-.27-.26s.1-.2.27-.26l19.34-6.71L1321,200.28c-.17-.06-.27-.15-.27-.26s.1-.2.27-.26l19.34-6.71-19.34-6.7c-.17-.06-.27-.16-.27-.27s.1-.2.27-.26l19.34-6.7L1321,172.41c-.17-.06-.27-.16-.27-.26s.1-.21.27-.26l19.34-6.71L1321,158.47c-.17-.06-.27-.16-.27-.26s.1-.2.27-.26l19.34-6.71L1321,144.53C1320.84,144.47,1320.74,144.37,1320.74,144.27Z"/><path class="cls-15" d="M1320.74,228.53c0-.1.1-.2.27-.26l20.09-7a1.06,1.06,0,0,1,.88.08c.19.14.12.34-.16.44l-19.34,6.71,19.34,6.71.07,0,.09,0s0,0,0,0l0,.06a.25.25,0,0,1,0,.09v0h0a.36.36,0,0,1-.26.25l-19.34,6.71,19.34,6.7s0,0,0,0l.12.06a0,0,0,0,0,0,0l0,.05a.18.18,0,0,1,0,.08v0a0,0,0,0,0,0,0,.24.24,0,0,1-.1.15h0l-.06,0-.1.06-19.34,6.7,19.34,6.72,0,0,.12.06v0l0,0a.2.2,0,0,1,0,.09v0a.26.26,0,0,1-.1.15h0l-.06,0-.1.06-19.34,6.7,19.34,6.71,0,0,.12.05s0,0,0,0l0,.05a.2.2,0,0,1,0,.09v0a.26.26,0,0,1-.1.16h0l-.06,0-.1.06-19.34,6.7,19.34,6.71,0,0,.12.06s0,0,0,0l0,.05a.25.25,0,0,1,0,.08s0,0,0,0v0a.26.26,0,0,1-.1.16h0l-.06,0-.1.05-19.34,6.71,19.34,6.71,0,0a.31.31,0,0,1,.12.05s0,0,0,0l0,.05a.18.18,0,0,1,0,.08v0a.28.28,0,0,1-.1.16h0l-.06,0-.1.06-19.34,6.71,19.34,6.7c.17.07.27.17.27.26s0,0,0,0,0,.26-.24.34l-19.34,6.71,19.34,6.71,0,0,.12.06v0a.1.1,0,0,1,0,.05.14.14,0,0,1,0,.08s0,0,0,0h0a.26.26,0,0,1-.1.16h0l-.06,0-.1.06-19.34,6.71,19.34,6.7,0,0,.12.05a0,0,0,0,0,0,0l0,0a.28.28,0,0,1,0,.09s0,0,0,0v0a.26.26,0,0,1-.1.16h0l-.06,0-.1.06-19.34,6.7,19.34,6.71,0,0,.12.05v0l0,.05a.2.2,0,0,1,0,.09s0,0,0,0v0a.26.26,0,0,1-.1.16h0l-.06,0-.1.05L1322.48,368l19.34,6.71c.17.06.27.16.27.26a.24.24,0,0,1-.11.18,1.06,1.06,0,0,1-.88.08l-20.09-7c-.17-.06-.27-.16-.27-.26s.1-.2.27-.26l19.34-6.71L1321,354.34c-.17-.06-.27-.15-.27-.26s.1-.2.27-.26l19.34-6.71-19.34-6.7c-.17-.06-.27-.16-.27-.26s.1-.2.27-.26l19.34-6.71L1321,326.46c-.17,0-.27-.15-.27-.25s.1-.2.27-.26l19.5-6.76-19.5-6.77c-.17-.06-.27-.16-.27-.26s.1-.2.27-.26l19.34-6.71L1321,298.48c-.17-.06-.27-.16-.27-.26s.1-.2.27-.26l19.34-6.71L1321,284.54c-.17-.06-.27-.15-.27-.26s.1-.2.27-.26l19.34-6.71-19.34-6.7c-.17-.06-.27-.16-.27-.27s.1-.19.27-.25l19.34-6.72-19.34-6.7c-.17-.07-.27-.16-.27-.27s.1-.2.27-.25l19.34-6.71L1321,242.73c-.17-.06-.27-.16-.27-.26s.1-.2.27-.26l19.34-6.71L1321,228.79C1320.84,228.73,1320.74,228.63,1320.74,228.53Z"/><path class="cls-16" d="M1087.11,31.6c-.1,0-.2.1-.26.27l-6.71,19.34-6.71-19.34c0-.17-.16-.27-.26-.27s-.2.1-.26.27l-7,20.08a1.1,1.1,0,0,0,.08.88c.15.2.34.13.44-.16l6.71-19.33,6.71,19.33s0,0,0,.08,0,.06,0,.08,0,0,0,0l.06,0a.13.13,0,0,0,.07,0l0,0s0,0,0,0,.19-.09.25-.26l6.7-19.33,6.71,19.33s0,0,0,0a.58.58,0,0,0,.05.11l0,0,0,0a.18.18,0,0,0,.09,0s0,0,0,0,0,0,0,0a.21.21,0,0,0,.16-.1h0s0,0,0,0a.58.58,0,0,0,0-.11l6.71-19.33,6.71,19.33s0,0,0,0a.28.28,0,0,0,0,.11l0,0a.1.1,0,0,0,.05,0,.15.15,0,0,0,.09,0s0,0,0,0,0,0,0,0a.21.21,0,0,0,.17-.1h0a.08.08,0,0,0,0,0,.54.54,0,0,0,.06-.11L1115,33.34l6.71,19.33s0,0,0,0a.54.54,0,0,0,.06.11l0,0a.1.1,0,0,0,0,0s.05,0,.08,0l0,0,0,0a.18.18,0,0,0,.15-.1h0l0,0a.54.54,0,0,0,.06-.11l6.7-19.33,6.71,19.33s0,0,0,0a.58.58,0,0,0,0,.11l0,0,0,0a.18.18,0,0,0,.09,0s0,0,0,0v0a.19.19,0,0,0,.16-.1h0l0,0a.54.54,0,0,0,.06-.11l6.71-19.33,6.7,19.33s0,0,0,0a.58.58,0,0,0,.05.11l0,0,.06,0a.12.12,0,0,0,.08,0l0,0s0,0,0,0a.19.19,0,0,0,.16-.1h0l0,0a.28.28,0,0,0,0-.11l6.71-19.33,6.71,19.33c.06.18.16.28.26.28a.24.24,0,0,0,.18-.12A1.1,1.1,0,0,0,1164,52l-7-20.08c0-.17-.15-.27-.26-.27s-.2.1-.26.27l-6.71,19.34-6.71-19.34c0-.17-.15-.27-.25-.27s-.21.1-.27.27l-6.7,19.34-6.71-19.34c-.06-.17-.16-.27-.27-.27s-.2.1-.26.27L1122,51.21l-6.7-19.34c-.06-.17-.16-.27-.26-.27s-.2.1-.26.27L1108,51.21l-6.71-19.34c-.06-.17-.16-.27-.26-.27s-.2.1-.26.27l-6.71,19.34-6.71-19.34C1087.31,31.7,1087.22,31.6,1087.11,31.6Z"/><path class="cls-16" d="M1171.37,31.6c-.11,0-.2.1-.26.27l-7,20.08a1.1,1.1,0,0,0,.08.88c.15.2.34.13.44-.16l6.71-19.33,6.71,19.33s0,0,0,.08a.3.3,0,0,1,0,.08l0,0,0,0,.08,0,0,0,0,0c.09,0,.19-.09.24-.26l6.71-19.33L1192,52.67s0,0,0,0a.58.58,0,0,0,0,.11s0,0,0,0l.05,0,.08,0s0,0,0,0l0,0a.18.18,0,0,0,.15-.1h0a.08.08,0,0,0,0,0,.29.29,0,0,0,.06-.11l6.71-19.33L1206,52.67s0,0,0,0a.54.54,0,0,0,.06.11l0,0a.1.1,0,0,0,0,0,.12.12,0,0,0,.08,0l0,0v0a.18.18,0,0,0,.16-.1h0s0,0,0,0a.54.54,0,0,0,.06-.11l6.71-19.33,6.71,19.33s0,0,0,0,0,.09.06.11,0,0,0,0l0,0s.06,0,.09,0l0,0s0,0,0,0a.18.18,0,0,0,.15-.1h0s0,0,0,0a.28.28,0,0,0,.05-.11l6.71-19.33,6.71,19.33s0,0,0,0a.58.58,0,0,0,.05.11l0,0,0,0a.18.18,0,0,0,.09,0l0,0s0,0,0,0a.19.19,0,0,0,.16-.1h0a.08.08,0,0,0,0,0,.3.3,0,0,0,.07-.11l6.7-19.33,6.71,19.33s0,0,0,0a.58.58,0,0,0,0,.11l0,0,.05,0,.08,0,0,0s0,0,0,0a.21.21,0,0,0,.16-.1h0s0,0,0,0a.58.58,0,0,0,0-.11L1255,33.34l6.71,19.33c.06.18.16.28.26.28l0,0c.12.06.25,0,.33-.25l6.71-19.33,6.71,19.33s0,0,0,0a.28.28,0,0,0,0,.11l0,0a.1.1,0,0,0,.05,0l.08,0,0,0v0a.2.2,0,0,0,.17-.1h0s0,0,0,0a.29.29,0,0,0,.06-.11L1283,33.34l6.7,19.33s0,0,0,0a.54.54,0,0,0,.06.11s0,0,0,0l.06,0s.05,0,.08,0l0,0,0,0a.18.18,0,0,0,.15-.1h0s0,0,0,0a.54.54,0,0,0,.06-.11l6.71-19.33,6.71,19.33s0,0,0,0a.2.2,0,0,0,.06.11s0,0,0,0l0,0a.18.18,0,0,0,.09,0s0,0,0,0,0,0,0,0a.19.19,0,0,0,.16-.1h0l0,0a.54.54,0,0,0,.06-.11l6.7-19.33,6.71,19.33c.06.18.16.28.26.28a.21.21,0,0,0,.18-.12,1.1,1.1,0,0,0,.08-.88l-7-20.08c-.07-.17-.16-.27-.27-.27s-.2.1-.26.27l-6.71,19.34-6.7-19.34c-.06-.17-.16-.27-.26-.27s-.2.1-.26.27L1290,51.21l-6.71-19.34c-.06-.17-.16-.27-.26-.27s-.2.1-.27.27L1276,51.21l-6.71-19.34c-.06-.17-.16-.27-.26-.27s-.2.1-.26.27L1262,51.37l-6.77-19.5c-.06-.17-.15-.27-.26-.27s-.2.1-.26.27L1248,51.21l-6.71-19.34c-.06-.17-.15-.27-.26-.27s-.2.1-.26.27l-6.71,19.34-6.71-19.34c-.06-.17-.15-.27-.26-.27s-.2.1-.25.27l-6.72,19.34-6.7-19.34c-.06-.17-.16-.27-.26-.27s-.2.1-.26.27l-6.71,19.34-6.71-19.34c-.06-.17-.16-.27-.26-.27s-.2.1-.26.27l-6.71,19.34-6.71-19.34c-.06-.17-.16-.27-.26-.27s-.2.1-.26.27l-6.71,19.34-6.71-19.34C1171.57,31.7,1171.48,31.6,1171.37,31.6Z"/><path class="cls-2" d="M1318.15,121V377.4h26.53V121Zm3.33,5.2h19.87V372.2h-19.87Z"/><rect class="cls-2" x="1320.29" y="136.6" width="21.79" height="0.96" transform="translate(2662.38 274.15) rotate(180)"/><rect class="cls-2" x="1320.29" y="150.6" width="21.79" height="0.96" transform="translate(2662.38 302.16) rotate(180)"/><rect class="cls-2" x="1320.29" y="164.6" width="21.79" height="0.96" transform="translate(2662.38 330.16) rotate(180)"/><rect class="cls-2" x="1320.29" y="178.61" width="21.79" height="0.95" transform="translate(2662.38 358.17) rotate(180)"/><rect class="cls-2" x="1320.29" y="192.6" width="21.79" height="0.96" transform="translate(2662.38 386.17) rotate(180)"/><rect class="cls-2" x="1320.29" y="206.61" width="21.79" height="0.95" transform="translate(2662.38 414.18) rotate(180)"/><rect class="cls-2" x="1320.29" y="220.61" width="21.79" height="0.96" transform="translate(2662.38 442.18) rotate(180)"/><rect class="cls-2" x="1320.29" y="234.61" width="21.79" height="0.96" transform="translate(2662.38 470.19) rotate(180)"/><rect class="cls-2" x="1320.29" y="248.62" width="21.79" height="0.96" transform="translate(2662.38 498.19) rotate(180)"/><rect class="cls-2" x="1320.29" y="262.62" width="21.79" height="0.96" transform="translate(2662.38 526.2) rotate(180)"/><rect class="cls-2" x="1320.29" y="276.62" width="21.79" height="0.96" transform="translate(2662.38 554.2) rotate(180)"/><rect class="cls-2" x="1320.29" y="290.62" width="21.79" height="0.96" transform="translate(2662.38 582.21) rotate(180)"/><rect class="cls-2" x="1320.29" y="304.63" width="21.79" height="0.96" transform="translate(2662.38 610.21) rotate(180)"/><rect class="cls-2" x="1320.29" y="318.63" width="21.79" height="0.95" transform="translate(2662.38 638.22) rotate(180)"/><rect class="cls-2" x="1320.29" y="332.63" width="21.79" height="0.96" transform="translate(2662.38 666.22) rotate(180)"/><rect class="cls-2" x="1320.29" y="346.64" width="21.79" height="0.96" transform="translate(2662.38 694.23) rotate(180)"/><rect class="cls-2" x="1320.29" y="360.64" width="21.79" height="0.96" transform="translate(2662.38 722.23) rotate(180)"/><rect class="cls-2" x="1063.63" y="51.49" width="254.51" height="5.28" transform="translate(2381.78 108.25) rotate(180)"/><path class="cls-2" d="M1072.91,32.59h238.55a5.29,5.29,0,0,0-5.29-5.28H1072.91Z"/><path class="cls-15" d="M1313.79,121H1349a5.29,5.29,0,0,0,5.28-5.28h0a5.28,5.28,0,0,0-5.28-5.28h-35.25a5.27,5.27,0,0,0-5.28,5.28h0A5.28,5.28,0,0,0,1313.79,121Z"/><path class="cls-2" d="M1347.91,90.9v19.49h-35.08V90.46a4.13,4.13,0,0,1,4.13-4.13h26.38A4.58,4.58,0,0,1,1347.91,90.9Z"/><polygon class="cls-2" points="1319.69 85.53 1344.46 60.76 1342.23 58.55 1318.55 82.23 1319.69 85.53"/><path class="cls-17" d="M1321,90.34v13.21a2.93,2.93,0,0,1-2.93,2.92h-9a4.3,4.3,0,0,1-4.3-4.29V98.55a12.23,12.23,0,0,1,12.22-12.22h0A4,4,0,0,1,1321,90.34Z"/><path class="cls-15" d="M1317.3,61.08h29.38a5.61,5.61,0,0,0,5.6-5.61h0a5.6,5.6,0,0,0-5.6-5.6H1317.3a5.6,5.6,0,0,0-5.6,5.6h0A5.61,5.61,0,0,0,1317.3,61.08Z"/><rect class="cls-2" x="1322.46" y="37.2" width="15.52" height="2.55" transform="translate(2660.44 76.95) rotate(180)"/><rect class="cls-2" x="1325.48" y="22.85" width="9.49" height="2.56" transform="translate(2660.44 48.26) rotate(180)"/><path class="cls-15" d="M1136.69,63.05h29.2a4.46,4.46,0,0,0,4.46-4.46h0a4.46,4.46,0,0,0-4.46-4.46h-29.2a4.46,4.46,0,0,0-4.47,4.46h0A4.46,4.46,0,0,0,1136.69,63.05Z"/><path class="cls-18" d="M1308.31,377.4h45.76a0,0,0,0,1,0,0v13.29a2,2,0,0,1-2,2h-41.68a2,2,0,0,1-2-2V377.4A0,0,0,0,1,1308.31,377.4Z" transform="translate(2662.38 770.13) rotate(180)"/><path class="cls-19" d="M1301.19,392.42h60a.84.84,0,0,1,.84.84v7.53a1.06,1.06,0,0,1-1.06,1.06h-59.57a1.06,1.06,0,0,1-1.06-1.06v-7.53A.84.84,0,0,1,1301.19,392.42Z" transform="translate(2662.38 794.27) rotate(180)"/><path class="cls-2" d="M1100.78,235.79a1.17,1.17,0,0,0,.71-.24L1152,197.12a1.18,1.18,0,0,0-1.43-1.88l-50.5,38.44a1.17,1.17,0,0,0-.23,1.65A1.19,1.19,0,0,0,1100.78,235.79Z"/><path class="cls-17" d="M1147.46,186.14a2.45,2.45,0,0,0,1.08-2.19v-7H1154v7a7.83,7.83,0,0,1-4,7.05,2.75,2.75,0,1,0,4,2.44,2.75,2.75,0,1,1,5.49,0,8.24,8.24,0,1,1-12.06-7.3Z"/><rect class="cls-17" x="1148.53" y="63.05" width="5.5" height="99.25" transform="translate(2302.57 225.35) rotate(180)"/><path class="cls-2" d="M1151.28,180.46h0a6.68,6.68,0,0,0,6.69-6.68V162a6.68,6.68,0,0,0-6.69-6.68h0a6.69,6.69,0,0,0-6.68,6.68v11.79A6.69,6.69,0,0,0,1151.28,180.46Z"/><path class="cls-2" d="M1201.79,235.79a1.19,1.19,0,0,0,.94-.46,1.18,1.18,0,0,0-.23-1.65L1152,195.24a1.18,1.18,0,0,0-1.43,1.88l50.51,38.43A1.17,1.17,0,0,0,1201.79,235.79Z"/><rect class="cls-20" x="1095.54" y="231.82" width="109.14" height="7.95" rx="0.82" transform="translate(2300.22 471.58) rotate(180)"/><path class="cls-7" d="M1234.39,397.31a18.17,18.17,0,1,0,18.17-18.17A18.17,18.17,0,0,0,1234.39,397.31Z"/><path class="cls-2" d="M1159.51,404.26V383.71s-1.59-12,42.29-12h34.61a3.6,3.6,0,0,1,3.13,1.81l.9,1.58a3.49,3.49,0,0,1-.43,4.07l-11.68,13.08v12Z"/><path class="cls-3" d="M1236.41,371.75l-3.54-25.38a4.59,4.59,0,0,0-4.54-3.95h-23.54a4.6,4.6,0,0,0-4.59,4.59v24.74Z"/><path class="cls-6" d="M1229.85,347.05l3,19a2,2,0,0,1-2,2.3h-7.9v-23h4.94A2,2,0,0,1,1229.85,347.05Z"/><path class="cls-6" d="M1203.4,345.35h16.91a.64.64,0,0,1,.64.64v21.72a.64.64,0,0,1-.64.64H1203.4a0,0,0,0,1,0,0v-23A0,0,0,0,1,1203.4,345.35Z" transform="translate(2424.35 713.7) rotate(180)"/><path class="cls-9" d="M1237.4,397.31a15.17,15.17,0,1,0,15.16-15.17A15.17,15.17,0,0,0,1237.4,397.31Z"/><path class="cls-9" d="M1170.13,392.29a17.4,17.4,0,0,1,30.63,0h27.57v12h-68.82v-12Z"/><path class="cls-3" d="M1167.59,395.08V402a4,4,0,0,1-4,4.05h-4.5a4.53,4.53,0,0,1-2.45-.73l-4.62-3a2.92,2.92,0,0,1-1.34-2.46v-4.63a3,3,0,0,1,2.94-2.95h11.22A2.78,2.78,0,0,1,1167.59,395.08Z"/><path class="cls-2" d="M1221,405.4l54.94-1.54a2.56,2.56,0,0,0,2.49-2.55v-3.87a2.56,2.56,0,0,0-2.49-2.56L1221,393.34a2,2,0,0,0-2,2v8.12A2,2,0,0,0,1221,405.4Z"/><path class="cls-9" d="M1250.7,399.17a1.86,1.86,0,1,0,1.86-1.86A1.86,1.86,0,0,0,1250.7,399.17Z"/><path class="cls-12" d="M1170.5,400.54a14.94,14.94,0,1,0,14.94-15A14.94,14.94,0,0,0,1170.5,400.54Z"/><path class="cls-2" d="M1178.05,400.54a7.4,7.4,0,1,0,7.39-7.4A7.39,7.39,0,0,0,1178.05,400.54Z"/><path class="cls-9" d="M1210.82,389.46h9a1.51,1.51,0,0,0,1.44-1l.65-2a1.5,1.5,0,0,0-1.43-2h-10.34a1.5,1.5,0,0,0-1.43,2l.64,2A1.52,1.52,0,0,0,1210.82,389.46Z"/><path class="cls-21" d="M1199.81,383.15h0a.39.39,0,0,0,.39-.4v-8.91a.39.39,0,0,0-.39-.4h0a.4.4,0,0,0-.41.4v8.91A.4.4,0,0,0,1199.81,383.15Z"/><path class="cls-21" d="M1198.33,383.15h0a.4.4,0,0,0,.4-.4v-8.91a.4.4,0,0,0-.4-.4h0a.4.4,0,0,0-.4.4v8.91A.4.4,0,0,0,1198.33,383.15Z"/><path class="cls-21" d="M1196.85,383.15h0a.39.39,0,0,0,.39-.4v-8.91a.39.39,0,0,0-.39-.4h0a.4.4,0,0,0-.41.4v8.91A.4.4,0,0,0,1196.85,383.15Z"/><path class="cls-21" d="M1195.36,383.15h0a.39.39,0,0,0,.4-.4v-8.91a.39.39,0,0,0-.4-.4h0a.39.39,0,0,0-.39.4v8.91A.39.39,0,0,0,1195.36,383.15Z"/><path class="cls-22" d="M129.51,415.48h59.14S168,391.43,159.08,391.4,129.51,415.48,129.51,415.48Z"/><path class="cls-23" d="M373.68,386.58h-4.91v-3.43a2.37,2.37,0,0,1,2.38-2.38h.11a2.37,2.37,0,0,1,2.38,2.38v3.43Z"/><path class="cls-24" d="M374.2,387.11h-6v-.6a.52.52,0,0,1,.53-.53h4.87a.52.52,0,0,1,.53.53v.6Z"/><path class="cls-25" d="M370.58,382.43c-.34.3-.8.41-1,.27s-.08-.61.26-.91.79-.42,1-.27.08.57-.26.91Z"/><path class="cls-23" d="M407.19,386.58h-4.91v-3.43a2.37,2.37,0,0,1,2.38-2.38h.11a2.37,2.37,0,0,1,2.38,2.38v3.43Z"/><path class="cls-24" d="M407.71,387.11h-6v-.6a.52.52,0,0,1,.53-.53h4.87a.52.52,0,0,1,.53.53v.6Z"/><path class="cls-25" d="M404.09,382.43c-.34.3-.79.41-1,.27s-.08-.61.26-.91.8-.42,1-.27.07.57-.27.91Z"/><polygon class="cls-26" points="401.04 401.63 404.73 401.63 404.73 415.48 401.04 415.48 401.04 401.63 401.04 401.63"/><path class="cls-24" d="M407.06,415.48v-1a1.15,1.15,0,0,0-1.14-1.14h-6.07a1.15,1.15,0,0,0-1.14,1.14v1Z"/><polygon class="cls-26" points="371.22 401.63 374.91 401.63 374.91 415.48 371.22 415.48 371.22 401.63 371.22 401.63"/><path class="cls-27" d="M409.72,387.16H366.23a.54.54,0,0,0-.54.54v13.39a.54.54,0,0,0,.54.54h43.49a.54.54,0,0,0,.54-.54V387.7a.54.54,0,0,0-.54-.54Z"/><polygon class="cls-23" points="407.71 401.63 403.22 401.63 400.18 387.16 404.68 387.16 407.71 401.63 407.71 401.63"/><polygon class="cls-23" points="397.03 401.63 392.59 401.63 389.55 387.16 394.05 387.16 397.03 401.63 397.03 401.63"/><polygon class="cls-23" points="386.4 401.63 381.9 401.63 378.92 387.16 383.37 387.16 386.4 401.63 386.4 401.63"/><polygon class="cls-23" points="375.78 401.63 371.27 401.63 368.24 387.16 372.74 387.16 375.78 401.63 375.78 401.63"/><path class="cls-24" d="M377.24,415.48v-1a1.15,1.15,0,0,0-1.14-1.14H370a1.15,1.15,0,0,0-1.14,1.14v1Z"/><path class="cls-23" d="M1085.3,386.58h-4.91v-3.43a2.37,2.37,0,0,1,2.38-2.38h.11a2.37,2.37,0,0,1,2.38,2.38v3.43Z"/><path class="cls-24" d="M1085.83,387.11h-6v-.6a.52.52,0,0,1,.53-.53h4.87a.52.52,0,0,1,.53.53v.6Z"/><path class="cls-25" d="M1082.2,382.43c-.34.3-.79.41-1,.27s-.08-.61.26-.91.8-.42,1-.27.08.57-.26.91Z"/><path class="cls-23" d="M1118.81,386.58h-4.91v-3.43a2.37,2.37,0,0,1,2.38-2.38h.11a2.37,2.37,0,0,1,2.38,2.38v3.43Z"/><path class="cls-24" d="M1119.34,387.11h-6v-.6a.52.52,0,0,1,.53-.53h4.87a.52.52,0,0,1,.53.53v.6Z"/><path class="cls-25" d="M1115.71,382.43c-.34.3-.79.41-1,.27s-.08-.61.27-.91.79-.42,1-.27.07.57-.27.91Z"/><polygon class="cls-26" points="1112.67 401.63 1116.35 401.63 1116.35 415.48 1112.67 415.48 1112.67 401.63 1112.67 401.63"/><path class="cls-24" d="M1118.68,415.48v-1a1.14,1.14,0,0,0-1.13-1.14h-6.08a1.14,1.14,0,0,0-1.13,1.14v1Z"/><polygon class="cls-26" points="1082.84 401.63 1086.53 401.63 1086.53 415.48 1082.84 415.48 1082.84 401.63 1082.84 401.63"/><path class="cls-27" d="M1121.34,387.16h-43.49a.54.54,0,0,0-.54.54v13.39a.54.54,0,0,0,.54.54h43.49a.55.55,0,0,0,.55-.54V387.7a.55.55,0,0,0-.55-.54Z"/><polygon class="cls-23" points="1119.34 401.63 1114.84 401.63 1111.8 387.16 1116.3 387.16 1119.34 401.63 1119.34 401.63"/><polygon class="cls-23" points="1108.65 401.63 1104.21 401.63 1101.17 387.16 1105.67 387.16 1108.65 401.63 1108.65 401.63"/><polygon class="cls-23" points="1098.03 401.63 1093.53 401.63 1090.54 387.16 1094.99 387.16 1098.03 401.63 1098.03 401.63"/><polygon class="cls-23" points="1087.4 401.63 1082.9 401.63 1079.86 387.16 1084.36 387.16 1087.4 401.63 1087.4 401.63"/><path class="cls-24" d="M1088.86,415.48v-1a1.15,1.15,0,0,0-1.14-1.14h-6.07a1.15,1.15,0,0,0-1.14,1.14v1Z"/><rect class="cls-28" x="95.66" y="445.58" width="1191.77" height="3.53"/></g></g></svg>