<svg xmlns="http://www.w3.org/2000/svg" xmlns:xlink="http://www.w3.org/1999/xlink" viewBox="0 0 53.37 53.37"><defs><style>.cls-1{fill:url(#Degradado_sin_nombre_17);}.cls-2{fill:url(#Degradado_sin_nombre_13);}</style><linearGradient id="Degradado_sin_nombre_17" x1="42.42" y1="4.51" x2="0.07" y2="64.18" gradientUnits="userSpaceOnUse"><stop offset="0" stop-color="#f6f6f7"/><stop offset="1" stop-color="#fff"/></linearGradient><linearGradient id="Degradado_sin_nombre_13" x1="43.03" y1="11.26" x2="21.47" y2="50.91" gradientUnits="userSpaceOnUse"><stop offset="0" stop-color="#1e1e1e"/><stop offset="1" stop-color="#434040"/></linearGradient></defs><title>fb_icon</title><g id="Layer_2" data-name="Layer 2"><g id="Capa_1" data-name="Capa 1"><path class="cls-1" d="M53.37,26.69A26.69,26.69,0,1,0,26.68,53.37h.23V34.75H20.49V27.31h6.42V21.82c0-6.37,3.89-9.84,9.57-9.84a52.18,52.18,0,0,1,5.74.3v6.65H38.28c-3.09,0-3.68,1.47-3.68,3.63v4.75H42l-1,7.44H34.6V52.18A26.7,26.7,0,0,0,53.37,26.69Z"/><path class="cls-2" d="M41,34.75l1-7.44H34.6V22.56c0-2.16.59-3.63,3.68-3.63h3.94V12.28a52.18,52.18,0,0,0-5.74-.3c-5.68,0-9.57,3.47-9.57,9.84v5.49H20.49v7.44h6.42V53.36a26.7,26.7,0,0,0,7.69-1.18V34.75Z"/></g></g></svg>