<svg xmlns="http://www.w3.org/2000/svg" xmlns:xlink="http://www.w3.org/1999/xlink" viewBox="0 0 53.37 53.37"><defs><style>.cls-1{fill:url(#Degradado_sin_nombre_15);}.cls-2{fill:url(#Degradado_sin_nombre_13);}</style><radialGradient id="Degradado_sin_nombre_15" cx="26.27" cy="28.78" fx="-5.394963511007749" r="75.43" gradientTransform="matrix(0.65, -0.76, 0.61, 0.53, -8.59, 33.39)" gradientUnits="userSpaceOnUse"><stop offset="0" stop-color="#fff"/><stop offset="1" stop-color="#f6f6f7"/></radialGradient><linearGradient id="Degradado_sin_nombre_13" x1="44.13" y1="7.32" x2="4.6" y2="51.2" gradientUnits="userSpaceOnUse"><stop offset="0" stop-color="#1e1e1e"/><stop offset="1" stop-color="#434040"/></linearGradient></defs><title>ig_icon</title><g id="Layer_2" data-name="Layer 2"><g id="Capa_1" data-name="Capa 1"><path class="cls-1" d="M53.37,26.69A26.69,26.69,0,1,1,26.68,0,26.69,26.69,0,0,1,53.37,26.69Z"/><path class="cls-2" d="M33.91,44.69H19.46A11.65,11.65,0,0,1,7.82,33.06V20.31A11.65,11.65,0,0,1,19.46,8.68H33.91A11.65,11.65,0,0,1,45.55,20.31V33.06A11.65,11.65,0,0,1,33.91,44.69ZM19.46,11.26a9.06,9.06,0,0,0-9.06,9V33.06a9.06,9.06,0,0,0,9.06,9H33.91a9.06,9.06,0,0,0,9.06-9V20.31a9.06,9.06,0,0,0-9.06-9ZM26.68,37A10.36,10.36,0,1,1,37,26.69,10.36,10.36,0,0,1,26.68,37Zm0-18.13a7.78,7.78,0,1,0,7.78,7.78A7.79,7.79,0,0,0,26.68,18.91Zm10.21-4.42A2.15,2.15,0,1,0,39,16.64,2.15,2.15,0,0,0,36.89,14.49Z"/></g></g></svg>