<svg xmlns="http://www.w3.org/2000/svg" viewBox="0 0 35.12 46.83"><defs><style>.cls-1{fill:#ffd100;}</style></defs><title>location_icon</title><g id="Layer_2" data-name="Layer 2"><g id="Capa_1" data-name="Capa 1"><path class="cls-1" d="M35.12,17.56A17.56,17.56,0,0,0,0,17.56c0,7.18,9.1,19.67,13.51,25.37H3.9a2,2,0,0,0,0,3.9H31.22a1.95,1.95,0,0,0,0-3.9H21.61C26,37.26,35.12,24.75,35.12,17.56Zm-31.22,0a13.66,13.66,0,0,1,27.32,0c0,5.81-8.8,18.1-13.66,24.22C12.7,35.66,3.9,23.37,3.9,17.56Z"/><path class="cls-1" d="M25.37,17.56a7.81,7.81,0,1,0-7.81,7.81,7.82,7.82,0,0,0,7.81-7.81Zm-11.71,0a3.9,3.9,0,1,1,3.9,3.9,3.91,3.91,0,0,1-3.9-3.9Z"/></g></g></svg>