<svg xmlns="http://www.w3.org/2000/svg" xmlns:xlink="http://www.w3.org/1999/xlink" viewBox="0 0 554.56 75.56"><defs><style>.cls-1{fill:none;}.cls-2{fill:#ffd100;}.cls-3{clip-path:url(#clip-path);}.cls-4{fill:#df0109;}.cls-5{fill:#050305;}.cls-5,.cls-6{fill-rule:evenodd;}.cls-6{fill:#e1251b;}</style><clipPath id="clip-path"><rect class="cls-1" width="228.36" height="75.56"/></clipPath></defs><title>logos</title><g id="Layer_2" data-name="Layer 2"><g id="Capa_1" data-name="Capa 1"><rect class="cls-2" width="228.36" height="75.56"/><g class="cls-3"><path class="cls-4" d="M84.44,41.36l-5.8,0v5.44h5.81a2.74,2.74,0,0,0,0-5.47M67.06,36.5H91.6c4,0,7.23,3.5,7.23,7.81a7.82,7.82,0,0,1-4.54,7.25l5.06,7.88h-14l-3.6-7.32H78.62v7.32H67.06Z"/><polygon class="cls-4" points="151.02 54.4 162.91 54.4 162.91 59.44 139.01 59.44 139.01 36.51 151.02 36.51 151.02 54.4"/><polygon class="cls-4" points="117.66 54.4 132.33 54.4 132.33 59.44 105.42 59.44 105.42 36.51 131 36.51 131 41.55 117.66 41.55 117.66 45.45 131 45.45 131 50.49 117.66 50.49 117.66 54.4"/><polygon class="cls-4" points="178.37 54.4 190.27 54.4 190.27 59.44 166.36 59.44 166.36 36.51 178.37 36.51 178.37 54.4"/><path class="cls-4" d="M178.9,21.08h-139v5.34h139a2.68,2.68,0,0,0,0-5.34M19.69,15.79H201.25c4.1,0,7.42,3.59,7.42,8s-3.32,8-7.42,8H39.93V59.44H19.69V15.79Z"/><rect class="cls-4" x="47.71" y="36.51" width="11.56" height="22.94"/><rect class="cls-4" x="193.6" y="36.51" width="11.57" height="22.94"/></g><path class="cls-5" d="M554.55,33.41h-13.7a3.63,3.63,0,0,0,.14-1q0-1.89-2.7-1.89-4,0-4,2.32,0,1.51,4.6,2.32a56.54,56.54,0,0,1,9.15,2.11c2.49,1.09,3.73,2.69,3.73,4.82a7.39,7.39,0,0,1-.23,1.75q-2.26,8.38-19.48,8.4-15.8,0-15.35-8.6h13.7a3.18,3.18,0,0,0-.14.93c0,1.3,1,2,3,2q4.17,0,4.17-2.33c0-1-1.53-1.75-4.59-2.29a56,56,0,0,1-9.15-2.11c-2.49-1.07-3.74-2.67-3.74-4.82a7.12,7.12,0,0,1,.24-1.75q2.27-8.41,19.5-8.42,15.33,0,14.87,8.6ZM502.39,44.06l.93-3.49a13.85,13.85,0,0,1-3.22.67,13.53,13.53,0,0,0-3.27.69,3.26,3.26,0,0,0-2.1,2.13,2.76,2.76,0,0,0-.1.72c0,1.22,1.08,1.82,3.25,1.82q3.84,0,4.51-2.54ZM512.51,52l4.11-15.25a14.55,14.55,0,0,0,.52-3.69q0-8.24-13.32-8.24-14.49,0-19.21,9.15h12.9c.67-2.23,2.25-3.35,4.76-3.35,2,0,3.05.74,3,2.22a4.49,4.49,0,0,1-.17,1.13l-.19.72a32.48,32.48,0,0,1-9,1.75,33.35,33.35,0,0,0-9,1.7,9.15,9.15,0,0,0-5.79,6.29,7,7,0,0,0-.26,1.8q0,6,13.19,6A16.46,16.46,0,0,0,500.51,51l-.26,1Zm-45.43-9.6,2.08-7.79a7,7,0,0,0,.26-1.77c0-1.53-.8-2.3-2.41-2.3-2.16,0-3.59,1.36-4.31,4.07l-2.09,7.79a6.69,6.69,0,0,0-.28,1.77c0,1.53.81,2.3,2.42,2.3q3.22,0,4.33-4.07Zm9.68,9.6H464.49l.27-1a16,16,0,0,1-6.18,1.22q-12.56,0-12.5-8.53a16.6,16.6,0,0,1,.62-4.09l.6-2.23q3.36-12.57,18.61-12.57A12.18,12.18,0,0,1,471.48,26l2.21-8.26H486L476.76,52ZM431.24,35.58l.26-1a7,7,0,0,0,.26-1.75c0-1.56-.77-2.34-2.39-2.34q-3.24,0-4.34,4.09l-.26,1Zm13.33,4.77h-21.1l-.55,2.06a6.82,6.82,0,0,0-.29,1.79c0,1.52.81,2.28,2.42,2.28a4,4,0,0,0,4.12-3.35h14.28q-4.68,9.12-19.93,9.12-15.06,0-15.06-8.94a14.28,14.28,0,0,1,.54-3.66l.59-2.22q3.36-12.6,21.26-12.6,15.09,0,15.09,8.86a14,14,0,0,1-.57,3.76l-.8,2.9ZM403.28,52l7.23-26.94H398.25l-4.67,17.39c-.72,2.71-2.15,4.07-4.31,4.07-1.61,0-2.42-.76-2.42-2.28a7.34,7.34,0,0,1,.26-1.77l4.67-17.41H379.52l-4.36,16.28a15.2,15.2,0,0,0-.62,4q0,6.85,8.89,6.85a21.79,21.79,0,0,0,7.83-1.15L391,52ZM360,28.83a5.08,5.08,0,0,0,.17-1.2c0-1.7-1.32-2.56-3.95-2.56h-2.11l-2,7.54h2.1q4.78,0,5.82-3.78ZM370.85,52,355,52,349,43.89,346.84,52H332.18l7.23-26.94h12.45l-10.48-7.35H368q7.55,0,7.54,5.94A14.86,14.86,0,0,1,375,27.3l-.83,3.09Q371.6,40,362,40Z"/><path class="cls-6" d="M316.24,52H304l9.2-34.29h12.26L316.24,52ZM301.1,52l7.23-26.94H296.07L288.83,52Zm7.7-28.76,1.49-5.53H298l-1.49,5.53ZM286,52H271.27l5-18.37-11,13.78-3.6-13.78L256.69,52H242l7.24-26.94h12.45l-10.49-7.35h14.66l3.59,13.77,11-13.77h14.66Z"/></g></g></svg>